<mxfile host="app.diagrams.net" modified="2024-04-27T03:54:48.789Z" agent="Mozilla/5.0 (Windows NT 10.0; Win64; x64) AppleWebKit/537.36 (KHTML, like Gecko) Chrome/124.0.0.0 Safari/537.36" etag="xUcW0B9l4j3ARsYSYFNs" version="22.1.21" type="device">
  <diagram name="Page-1" id="9Ewgd7WJC4d77eWNAIYj">
    <mxGraphModel dx="1750" dy="937" grid="1" gridSize="10" guides="1" tooltips="1" connect="1" arrows="1" fold="1" page="1" pageScale="1" pageWidth="850" pageHeight="1100" math="0" shadow="0">
      <root>
        <mxCell id="0" />
        <mxCell id="1" parent="0" />
        <mxCell id="cHorV7z0BxvfCWnAHV9U-18" style="edgeStyle=orthogonalEdgeStyle;rounded=0;orthogonalLoop=1;jettySize=auto;html=1;exitX=0.5;exitY=1;exitDx=0;exitDy=0;entryX=0.5;entryY=0;entryDx=0;entryDy=0;" edge="1" parent="1" source="cHorV7z0BxvfCWnAHV9U-1" target="cHorV7z0BxvfCWnAHV9U-3">
          <mxGeometry relative="1" as="geometry" />
        </mxCell>
        <mxCell id="cHorV7z0BxvfCWnAHV9U-1" value="registered user click on Post Ad" style="rounded=0;whiteSpace=wrap;html=1;" vertex="1" parent="1">
          <mxGeometry x="150" y="350" width="120" height="60" as="geometry" />
        </mxCell>
        <mxCell id="cHorV7z0BxvfCWnAHV9U-17" style="edgeStyle=orthogonalEdgeStyle;rounded=0;orthogonalLoop=1;jettySize=auto;html=1;exitX=0.5;exitY=1;exitDx=0;exitDy=0;entryX=0.5;entryY=0;entryDx=0;entryDy=0;" edge="1" parent="1" source="cHorV7z0BxvfCWnAHV9U-2" target="cHorV7z0BxvfCWnAHV9U-1">
          <mxGeometry relative="1" as="geometry" />
        </mxCell>
        <mxCell id="cHorV7z0BxvfCWnAHV9U-2" value="Start" style="ellipse;whiteSpace=wrap;html=1;" vertex="1" parent="1">
          <mxGeometry x="150" y="240" width="120" height="80" as="geometry" />
        </mxCell>
        <mxCell id="cHorV7z0BxvfCWnAHV9U-19" style="edgeStyle=orthogonalEdgeStyle;rounded=0;orthogonalLoop=1;jettySize=auto;html=1;exitX=0.5;exitY=1;exitDx=0;exitDy=0;entryX=0.5;entryY=0;entryDx=0;entryDy=0;" edge="1" parent="1" source="cHorV7z0BxvfCWnAHV9U-3" target="cHorV7z0BxvfCWnAHV9U-4">
          <mxGeometry relative="1" as="geometry" />
        </mxCell>
        <mxCell id="cHorV7z0BxvfCWnAHV9U-3" value="Choose Ad types(goods / property)" style="rounded=0;whiteSpace=wrap;html=1;" vertex="1" parent="1">
          <mxGeometry x="150" y="440" width="120" height="60" as="geometry" />
        </mxCell>
        <mxCell id="cHorV7z0BxvfCWnAHV9U-20" style="edgeStyle=orthogonalEdgeStyle;rounded=0;orthogonalLoop=1;jettySize=auto;html=1;exitX=0.5;exitY=1;exitDx=0;exitDy=0;entryX=0.5;entryY=0;entryDx=0;entryDy=0;" edge="1" parent="1" source="cHorV7z0BxvfCWnAHV9U-4" target="cHorV7z0BxvfCWnAHV9U-5">
          <mxGeometry relative="1" as="geometry" />
        </mxCell>
        <mxCell id="cHorV7z0BxvfCWnAHV9U-4" value="choose Ad category and sub-category" style="rounded=0;whiteSpace=wrap;html=1;" vertex="1" parent="1">
          <mxGeometry x="150" y="530" width="120" height="60" as="geometry" />
        </mxCell>
        <mxCell id="cHorV7z0BxvfCWnAHV9U-21" style="edgeStyle=orthogonalEdgeStyle;rounded=0;orthogonalLoop=1;jettySize=auto;html=1;exitX=0.5;exitY=1;exitDx=0;exitDy=0;entryX=0.5;entryY=0;entryDx=0;entryDy=0;" edge="1" parent="1" source="cHorV7z0BxvfCWnAHV9U-5" target="cHorV7z0BxvfCWnAHV9U-6">
          <mxGeometry relative="1" as="geometry" />
        </mxCell>
        <mxCell id="cHorV7z0BxvfCWnAHV9U-5" value="select location" style="rounded=0;whiteSpace=wrap;html=1;" vertex="1" parent="1">
          <mxGeometry x="150" y="620" width="120" height="60" as="geometry" />
        </mxCell>
        <mxCell id="cHorV7z0BxvfCWnAHV9U-22" style="edgeStyle=orthogonalEdgeStyle;rounded=0;orthogonalLoop=1;jettySize=auto;html=1;exitX=0.5;exitY=1;exitDx=0;exitDy=0;entryX=0.5;entryY=0;entryDx=0;entryDy=0;" edge="1" parent="1" source="cHorV7z0BxvfCWnAHV9U-6" target="cHorV7z0BxvfCWnAHV9U-7">
          <mxGeometry relative="1" as="geometry" />
        </mxCell>
        <mxCell id="cHorV7z0BxvfCWnAHV9U-6" value="fill up details" style="rounded=0;whiteSpace=wrap;html=1;" vertex="1" parent="1">
          <mxGeometry x="150" y="710" width="120" height="60" as="geometry" />
        </mxCell>
        <mxCell id="cHorV7z0BxvfCWnAHV9U-23" style="edgeStyle=orthogonalEdgeStyle;rounded=0;orthogonalLoop=1;jettySize=auto;html=1;exitX=1;exitY=0.5;exitDx=0;exitDy=0;entryX=0;entryY=0.5;entryDx=0;entryDy=0;" edge="1" parent="1" source="cHorV7z0BxvfCWnAHV9U-7" target="cHorV7z0BxvfCWnAHV9U-11">
          <mxGeometry relative="1" as="geometry" />
        </mxCell>
        <mxCell id="cHorV7z0BxvfCWnAHV9U-7" value="select plan(membership / general listing)" style="rounded=0;whiteSpace=wrap;html=1;" vertex="1" parent="1">
          <mxGeometry x="150" y="800" width="120" height="60" as="geometry" />
        </mxCell>
        <mxCell id="cHorV7z0BxvfCWnAHV9U-27" style="edgeStyle=orthogonalEdgeStyle;rounded=0;orthogonalLoop=1;jettySize=auto;html=1;exitX=0.5;exitY=0;exitDx=0;exitDy=0;entryX=0.5;entryY=1;entryDx=0;entryDy=0;" edge="1" parent="1" source="cHorV7z0BxvfCWnAHV9U-8" target="cHorV7z0BxvfCWnAHV9U-13">
          <mxGeometry relative="1" as="geometry" />
        </mxCell>
        <mxCell id="cHorV7z0BxvfCWnAHV9U-8" value="Add ad-ons( Top-ad, Urgent, etc)" style="rounded=0;whiteSpace=wrap;html=1;" vertex="1" parent="1">
          <mxGeometry x="470" y="530" width="120" height="60" as="geometry" />
        </mxCell>
        <mxCell id="cHorV7z0BxvfCWnAHV9U-26" style="edgeStyle=orthogonalEdgeStyle;rounded=0;orthogonalLoop=1;jettySize=auto;html=1;exitX=0.5;exitY=0;exitDx=0;exitDy=0;entryX=0.5;entryY=1;entryDx=0;entryDy=0;" edge="1" parent="1" source="cHorV7z0BxvfCWnAHV9U-9" target="cHorV7z0BxvfCWnAHV9U-8">
          <mxGeometry relative="1" as="geometry" />
        </mxCell>
        <mxCell id="cHorV7z0BxvfCWnAHV9U-9" value="view checkout" style="rounded=0;whiteSpace=wrap;html=1;" vertex="1" parent="1">
          <mxGeometry x="470" y="620" width="120" height="60" as="geometry" />
        </mxCell>
        <mxCell id="cHorV7z0BxvfCWnAHV9U-25" style="edgeStyle=orthogonalEdgeStyle;rounded=0;orthogonalLoop=1;jettySize=auto;html=1;exitX=0.5;exitY=0;exitDx=0;exitDy=0;entryX=0.5;entryY=1;entryDx=0;entryDy=0;" edge="1" parent="1" source="cHorV7z0BxvfCWnAHV9U-10" target="cHorV7z0BxvfCWnAHV9U-9">
          <mxGeometry relative="1" as="geometry" />
        </mxCell>
        <mxCell id="cHorV7z0BxvfCWnAHV9U-10" value="payment&lt;br&gt;(bkash / ssl-commerce)" style="rounded=0;whiteSpace=wrap;html=1;" vertex="1" parent="1">
          <mxGeometry x="470" y="710" width="120" height="60" as="geometry" />
        </mxCell>
        <mxCell id="cHorV7z0BxvfCWnAHV9U-24" style="edgeStyle=orthogonalEdgeStyle;rounded=0;orthogonalLoop=1;jettySize=auto;html=1;exitX=0.5;exitY=0;exitDx=0;exitDy=0;entryX=0.5;entryY=1;entryDx=0;entryDy=0;" edge="1" parent="1" source="cHorV7z0BxvfCWnAHV9U-11" target="cHorV7z0BxvfCWnAHV9U-10">
          <mxGeometry relative="1" as="geometry" />
        </mxCell>
        <mxCell id="cHorV7z0BxvfCWnAHV9U-11" value="payment done - keep transaction details" style="rounded=0;whiteSpace=wrap;html=1;" vertex="1" parent="1">
          <mxGeometry x="470" y="800" width="120" height="60" as="geometry" />
        </mxCell>
        <mxCell id="cHorV7z0BxvfCWnAHV9U-28" style="edgeStyle=orthogonalEdgeStyle;rounded=0;orthogonalLoop=1;jettySize=auto;html=1;exitX=0;exitY=0.5;exitDx=0;exitDy=0;entryX=0.5;entryY=1;entryDx=0;entryDy=0;" edge="1" parent="1" source="cHorV7z0BxvfCWnAHV9U-13" target="cHorV7z0BxvfCWnAHV9U-15">
          <mxGeometry relative="1" as="geometry" />
        </mxCell>
        <mxCell id="cHorV7z0BxvfCWnAHV9U-29" style="edgeStyle=orthogonalEdgeStyle;rounded=0;orthogonalLoop=1;jettySize=auto;html=1;exitX=1;exitY=0.5;exitDx=0;exitDy=0;entryX=0.5;entryY=1;entryDx=0;entryDy=0;" edge="1" parent="1" source="cHorV7z0BxvfCWnAHV9U-13" target="cHorV7z0BxvfCWnAHV9U-14">
          <mxGeometry relative="1" as="geometry" />
        </mxCell>
        <mxCell id="cHorV7z0BxvfCWnAHV9U-13" value="ad review" style="rhombus;whiteSpace=wrap;html=1;" vertex="1" parent="1">
          <mxGeometry x="490" y="420" width="80" height="80" as="geometry" />
        </mxCell>
        <mxCell id="cHorV7z0BxvfCWnAHV9U-30" style="edgeStyle=orthogonalEdgeStyle;rounded=0;orthogonalLoop=1;jettySize=auto;html=1;exitX=0.5;exitY=0;exitDx=0;exitDy=0;entryX=1;entryY=0.5;entryDx=0;entryDy=0;" edge="1" parent="1" source="cHorV7z0BxvfCWnAHV9U-14" target="cHorV7z0BxvfCWnAHV9U-16">
          <mxGeometry relative="1" as="geometry" />
        </mxCell>
        <mxCell id="cHorV7z0BxvfCWnAHV9U-14" value="ad is posted" style="rounded=0;whiteSpace=wrap;html=1;" vertex="1" parent="1">
          <mxGeometry x="580" y="350" width="120" height="60" as="geometry" />
        </mxCell>
        <mxCell id="cHorV7z0BxvfCWnAHV9U-31" style="edgeStyle=orthogonalEdgeStyle;rounded=0;orthogonalLoop=1;jettySize=auto;html=1;entryX=0;entryY=0.5;entryDx=0;entryDy=0;" edge="1" parent="1" source="cHorV7z0BxvfCWnAHV9U-15" target="cHorV7z0BxvfCWnAHV9U-16">
          <mxGeometry relative="1" as="geometry" />
        </mxCell>
        <mxCell id="cHorV7z0BxvfCWnAHV9U-15" value="feedback is given" style="rounded=0;whiteSpace=wrap;html=1;" vertex="1" parent="1">
          <mxGeometry x="360" y="350" width="120" height="60" as="geometry" />
        </mxCell>
        <mxCell id="cHorV7z0BxvfCWnAHV9U-16" value="End" style="ellipse;whiteSpace=wrap;html=1;" vertex="1" parent="1">
          <mxGeometry x="470" y="240" width="120" height="80" as="geometry" />
        </mxCell>
        <mxCell id="cHorV7z0BxvfCWnAHV9U-32" value="positive" style="text;html=1;strokeColor=none;fillColor=none;align=center;verticalAlign=middle;whiteSpace=wrap;rounded=0;" vertex="1" parent="1">
          <mxGeometry x="640" y="430" width="60" height="30" as="geometry" />
        </mxCell>
        <mxCell id="cHorV7z0BxvfCWnAHV9U-33" value="negative" style="text;html=1;strokeColor=none;fillColor=none;align=center;verticalAlign=middle;whiteSpace=wrap;rounded=0;" vertex="1" parent="1">
          <mxGeometry x="360" y="430" width="60" height="30" as="geometry" />
        </mxCell>
      </root>
    </mxGraphModel>
  </diagram>
</mxfile>
